<svg width="36" height="36" viewBox="0 0 36 36" fill="none" xmlns="http://www.w3.org/2000/svg">
<path d="M24 6H27C27.7956 6 28.5587 6.31607 29.1213 6.87868C29.6839 7.44129 30 8.20435 30 9V30C30 30.7956 29.6839 31.5587 29.1213 32.1213C28.5587 32.6839 27.7956 33 27 33H9C8.20435 33 7.44129 32.6839 6.87868 32.1213C6.31607 31.5587 6 30.7956 6 30V9C6 8.20435 6.31607 7.44129 6.87868 6.87868C7.44129 6.31607 8.20435 6 9 6H12" stroke="#343A3F" stroke-width="2" stroke-linecap="round" stroke-linejoin="round"/>
<path d="M22.5 3H13.5C12.6716 3 12 3.67157 12 4.5V7.5C12 8.32843 12.6716 9 13.5 9H22.5C23.3284 9 24 8.32843 24 7.5V4.5C24 3.67157 23.3284 3 22.5 3Z" stroke="#343A3F" stroke-width="2" stroke-linecap="round" stroke-linejoin="round"/>
<path d="M25 14L11 14" stroke="#343A3F" stroke-width="2" stroke-linecap="round" stroke-linejoin="round"/>
<path d="M25 18.9883L11 18.9883" stroke="#343A3F" stroke-width="2" stroke-linecap="round" stroke-linejoin="round"/>
<path d="M23.3945 30.2959C25.8229 30.0205 27.5682 27.8279 27.2927 25.3986C27.0172 22.9693 24.8253 21.2232 22.3969 21.4986C19.9686 21.774 18.2233 23.9665 18.4988 26.3958C18.7743 28.8251 20.9662 30.5713 23.3945 30.2959Z" stroke="#343A3F" stroke-width="2" stroke-linecap="round" stroke-linejoin="round"/>
<path d="M30.1253 33.3227L26.3276 29.1301" stroke="#343A3F" stroke-width="2" stroke-linecap="round" stroke-linejoin="round"/>
</svg>
