<svg width="36" height="35" viewBox="0 0 36 35" fill="none" xmlns="http://www.w3.org/2000/svg">
<path d="M7.9165 6.95837L28.0832 28.0417" stroke="#343A3F" stroke-width="2" stroke-linecap="round" stroke-linejoin="round"/>
<path d="M25.5 4.37499C25.894 3.99197 26.3617 3.68814 26.8764 3.48085C27.3912 3.27356 27.9428 3.16687 28.5 3.16687C29.0572 3.16687 29.6088 3.27356 30.1236 3.48085C30.6383 3.68814 31.106 3.99197 31.5 4.37499C31.894 4.75802 32.2065 5.21273 32.4197 5.71317C32.6329 6.21361 32.7426 6.74998 32.7426 7.29166C32.7426 7.83333 32.6329 8.36971 32.4197 8.87015C32.2065 9.37059 31.894 9.8253 31.5 10.2083L11.25 29.8958L3 32.0833L5.25 24.0625L25.5 4.37499Z" stroke="#343A3F" stroke-width="2" stroke-linecap="round" stroke-linejoin="round"/>
</svg>
