<svg width="35" height="35" viewBox="0 0 35 35" fill="none" xmlns="http://www.w3.org/2000/svg">
<path d="M14.4374 6.18335C15.4412 5.94838 16.469 5.83093 17.4999 5.83335C27.7083 5.83335 33.5416 17.5 33.5416 17.5C32.6563 19.1561 31.6006 20.7153 30.3916 22.1521M20.5916 20.5917C20.1911 21.0215 19.7081 21.3663 19.1714 21.6054C18.6347 21.8445 18.0554 21.9731 17.468 21.9835C16.8805 21.9938 16.297 21.8858 15.7523 21.6657C15.2075 21.4457 14.7126 21.1182 14.2972 20.7027C13.8818 20.2873 13.5542 19.7924 13.3342 19.2477C13.1142 18.7029 13.0061 18.1194 13.0165 17.532C13.0268 16.9445 13.1554 16.3652 13.3945 15.8285C13.6336 15.2919 13.9784 14.8089 14.4083 14.4084M26.1624 26.1625C23.6695 28.0627 20.634 29.1154 17.4999 29.1667C7.29158 29.1667 1.45825 17.5 1.45825 17.5C3.27226 14.1194 5.78824 11.1659 8.83742 8.83752L26.1624 26.1625Z" stroke="#343A3F" stroke-width="2" stroke-linecap="round" stroke-linejoin="round"/>
<path d="M1.45825 1.45831L33.5416 33.5416" stroke="#343A3F" stroke-width="2" stroke-linecap="round" stroke-linejoin="round"/>
</svg>
