<svg width="37" height="35" viewBox="0 0 37 35" fill="none" xmlns="http://www.w3.org/2000/svg">
<path d="M22.6626 9.18752C22.3801 9.46013 22.2219 9.82663 22.2219 10.2084C22.2219 10.5901 22.3801 10.9566 22.6626 11.2292L25.1292 13.5625C25.4174 13.8297 25.8049 13.9794 26.2084 13.9794C26.6119 13.9794 26.9994 13.8297 27.2876 13.5625L33.0997 8.06461C33.8749 9.68509 34.1096 11.4906 33.7725 13.2404C33.4355 14.9903 32.5427 16.6015 31.2131 17.8592C29.8835 19.1169 28.1803 19.9614 26.3304 20.2803C24.4806 20.5991 22.5719 20.3771 20.8588 19.6438L10.2059 29.7209C9.5926 30.301 8.76077 30.6269 7.89342 30.6269C7.02606 30.6269 6.19423 30.301 5.58092 29.7209C4.9676 29.1407 4.62305 28.3538 4.62305 27.5334C4.62305 26.7129 4.9676 25.926 5.58092 25.3459L16.2338 15.2688C15.4586 13.6483 15.2239 11.8428 15.561 10.0929C15.898 8.34306 16.7908 6.73191 18.1204 5.4742C19.45 4.21648 21.1532 3.37193 23.0031 3.0531C24.8529 2.73427 26.7616 2.9563 28.4747 3.6896L22.678 9.17294L22.6626 9.18752Z" stroke="#343A3F" stroke-width="2" stroke-linecap="round" stroke-linejoin="round"/>
</svg>
