<svg width="24" height="24" viewBox="0 0 24 24" fill="none" xmlns="http://www.w3.org/2000/svg">
<g clip-path="url(#clip0_282_7177)">
<path d="M14.25 19.5H11.25C11.0511 19.5 10.8604 19.579 10.7197 19.7197C10.5791 19.8603 10.5 20.0511 10.5 20.25V21.75C10.5 21.9489 10.5791 22.1397 10.7197 22.2803C10.8604 22.421 11.0511 22.5 11.25 22.5H14.25C14.4489 22.5 14.6397 22.421 14.7804 22.2803C14.921 22.1397 15 21.9489 15 21.75V20.25C15 20.0511 14.921 19.8603 14.7804 19.7197C14.6397 19.579 14.4489 19.5 14.25 19.5ZM8.25004 16.5H6.00004V2.25C6.00004 2.05109 5.92102 1.86032 5.78037 1.71967C5.63971 1.57902 5.44895 1.5 5.25004 1.5H3.75004C3.55112 1.5 3.36036 1.57902 3.21971 1.71967C3.07905 1.86032 3.00004 2.05109 3.00004 2.25V16.5H0.750036C0.0848799 16.5 -0.251683 17.3081 0.220817 17.7802L3.97082 22.2802C4.11145 22.4207 4.30215 22.4997 4.50097 22.4997C4.6998 22.4997 4.89049 22.4207 5.03113 22.2802L8.78113 17.7802C9.25082 17.3091 8.9166 16.5 8.25004 16.5ZM20.25 7.5H11.25C11.0511 7.5 10.8604 7.57902 10.7197 7.71967C10.5791 7.86032 10.5 8.05109 10.5 8.25V9.75C10.5 9.94891 10.5791 10.1397 10.7197 10.2803C10.8604 10.421 11.0511 10.5 11.25 10.5H20.25C20.4489 10.5 20.6397 10.421 20.7804 10.2803C20.921 10.1397 21 9.94891 21 9.75V8.25C21 8.05109 20.921 7.86032 20.7804 7.71967C20.6397 7.57902 20.4489 7.5 20.25 7.5ZM17.25 13.5H11.25C11.0511 13.5 10.8604 13.579 10.7197 13.7197C10.5791 13.8603 10.5 14.0511 10.5 14.25V15.75C10.5 15.9489 10.5791 16.1397 10.7197 16.2803C10.8604 16.421 11.0511 16.5 11.25 16.5H17.25C17.4489 16.5 17.6397 16.421 17.7804 16.2803C17.921 16.1397 18 15.9489 18 15.75V14.25C18 14.0511 17.921 13.8603 17.7804 13.7197C17.6397 13.579 17.4489 13.5 17.25 13.5ZM23.25 1.5H11.25C11.0511 1.5 10.8604 1.57902 10.7197 1.71967C10.5791 1.86032 10.5 2.05109 10.5 2.25V3.75C10.5 3.94891 10.5791 4.13968 10.7197 4.28033C10.8604 4.42098 11.0511 4.5 11.25 4.5H23.25C23.4489 4.5 23.6397 4.42098 23.7804 4.28033C23.921 4.13968 24 3.94891 24 3.75V2.25C24 2.05109 23.921 1.86032 23.7804 1.71967C23.6397 1.57902 23.4489 1.5 23.25 1.5Z" fill="#93A2B7"/>
</g>
<defs>
<clipPath id="clip0_282_7177">
<rect width="24" height="24" fill="white"/>
</clipPath>
</defs>
</svg>
