<svg width="32" height="32" viewBox="0 0 32 32" fill="none" xmlns="http://www.w3.org/2000/svg">
<path d="M23.5 2.37512C23.894 1.99209 24.3617 1.68826 24.8764 1.48097C25.3912 1.27368 25.9428 1.16699 26.5 1.16699C27.0572 1.16699 27.6088 1.27368 28.1236 1.48097C28.6383 1.68826 29.106 1.99209 29.5 2.37512C29.894 2.75814 30.2065 3.21285 30.4197 3.71329C30.6329 4.21374 30.7426 4.75011 30.7426 5.29178C30.7426 5.83346 30.6329 6.36983 30.4197 6.87027C30.2065 7.37071 29.894 7.82543 29.5 8.20845L9.25 27.8959L1 30.0834L3.25 22.0626L23.5 2.37512Z" stroke="black" stroke-width="2" stroke-linecap="round" stroke-linejoin="round"/>
</svg>
