<svg width="35" height="35" viewBox="0 0 35 35" fill="none" xmlns="http://www.w3.org/2000/svg">
<path d="M33.5415 30.625V27.7083C33.5405 26.4158 33.1104 25.1603 32.3185 24.1388C31.5266 23.1173 30.4179 22.3877 29.1665 22.0646" stroke="#343A3F" stroke-width="2" stroke-linecap="round" stroke-linejoin="round"/>
<path d="M24.7918 30.625V27.7083C24.7918 26.1612 24.1772 24.6775 23.0833 23.5835C21.9893 22.4896 20.5056 21.875 18.9585 21.875H7.29183C5.74473 21.875 4.261 22.4896 3.16704 23.5835C2.07308 24.6775 1.4585 26.1612 1.4585 27.7083V30.625" stroke="#343A3F" stroke-width="2" stroke-linecap="round" stroke-linejoin="round"/>
<path d="M23.3335 4.56458C24.5883 4.88585 25.7004 5.6156 26.4946 6.63878C27.2888 7.66196 27.7199 8.92037 27.7199 10.2156C27.7199 11.5109 27.2888 12.7693 26.4946 13.7925C25.7004 14.8156 24.5883 15.5454 23.3335 15.8667" stroke="#343A3F" stroke-width="2" stroke-linecap="round" stroke-linejoin="round"/>
<path d="M13.1248 16.0417C16.3465 16.0417 18.9582 13.43 18.9582 10.2083C18.9582 6.98667 16.3465 4.375 13.1248 4.375C9.90318 4.375 7.2915 6.98667 7.2915 10.2083C7.2915 13.43 9.90318 16.0417 13.1248 16.0417Z" stroke="#343A3F" stroke-width="2" stroke-linecap="round" stroke-linejoin="round"/>
</svg>
