<svg width="35" height="35" viewBox="0 0 35 35" fill="none" xmlns="http://www.w3.org/2000/svg">
<path d="M20.4166 2.91663H8.74992C7.97637 2.91663 7.2345 3.22392 6.68752 3.7709C6.14054 4.31788 5.83325 5.05974 5.83325 5.83329V29.1666C5.83325 29.9402 6.14054 30.682 6.68752 31.229C7.2345 31.776 7.97637 32.0833 8.74992 32.0833H26.2499C27.0235 32.0833 27.7653 31.776 28.3123 31.229C28.8593 30.682 29.1666 29.9402 29.1666 29.1666V11.6666L20.4166 2.91663Z" stroke="#343A3F" stroke-width="2" stroke-linecap="round" stroke-linejoin="round"/>
<path d="M23.3334 24.7916H11.6667" stroke="#343A3F" stroke-width="2" stroke-linecap="round" stroke-linejoin="round"/>
<path d="M23.3334 18.9584H11.6667" stroke="#343A3F" stroke-width="2" stroke-linecap="round" stroke-linejoin="round"/>
<path d="M14.5834 13.125H13.1251H11.6667" stroke="#343A3F" stroke-width="2" stroke-linecap="round" stroke-linejoin="round"/>
<path d="M20.4167 2.91663V11.6666H29.1667" stroke="#343A3F" stroke-width="2" stroke-linecap="round" stroke-linejoin="round"/>
</svg>
