<svg width="36" height="35" viewBox="0 0 36 35" fill="none" xmlns="http://www.w3.org/2000/svg">
<path d="M4.5 8.75H7.5H31.5" stroke="black" stroke-width="2" stroke-linecap="round" stroke-linejoin="round"/>
<path d="M12 8.75033V5.83366C12 5.06011 12.3161 4.31824 12.8787 3.77126C13.4413 3.22428 14.2044 2.91699 15 2.91699H21C21.7956 2.91699 22.5587 3.22428 23.1213 3.77126C23.6839 4.31824 24 5.06011 24 5.83366V8.75033M28.5 8.75033V29.167C28.5 29.9405 28.1839 30.6824 27.6213 31.2294C27.0587 31.7764 26.2956 32.0837 25.5 32.0837H10.5C9.70435 32.0837 8.94129 31.7764 8.37868 31.2294C7.81607 30.6824 7.5 29.9405 7.5 29.167V8.75033H28.5Z" stroke="black" stroke-width="2" stroke-linecap="round" stroke-linejoin="round"/>
<path d="M21 16.042V24.792" stroke="black" stroke-width="2" stroke-linecap="round" stroke-linejoin="round"/>
<path d="M15 16.042V24.792" stroke="black" stroke-width="2" stroke-linecap="round" stroke-linejoin="round"/>
</svg>
